# xmcd
# Copyright (C) 1995-1998 Ti Kan
#
# Track frame offsets:
#       150
#       13779
#       28121
#       41662
#
# Disc length: 805 seconds
#
# Revision: 0
# Processed by: cddbd v1.5.2PL0 Copyright (c) Steve Scherf et al.
# Submitted via: CD-Import v1.0
#
DISCID=2b032304
DTITLE=Parties Break Hearts - Life Is Too Short To Dance With Ugly People
DYEAR=07
DGENRE=
TTITLE0=Scrape
TTITLE1=Fake As You
TTITLE2=Dance, Dance Revolution
TTITLE3=Save Yourself Part1
EXTD=
EXTT0=
EXTT1=
EXTT2=
EXTT3=
PLAYORDER=
